<svg xmlns="http://www.w3.org/2000/svg" viewBox="0 0 500 230">
  <style>
    path {
      fill: #3e4349;
    }
  </style>
  <path d="M9.529,14.735C0.234,26.289.387,77.187,0.387,92.3s0.66,76.449,28.949,104.945c18.895,19.032,45.721,31.939,88.37,31.939s69.135-8.29,112.747-36.5c45.136-29.2,67.455-62.773,89.894-85.173S356.408,69.5,384.339,57.321s64.792-23.478,99.035-19.772c0,0,4.891,4.817,12.189,0s5.589-16.062-1.524-22.814-17.817-1.138-18.283,1.521a262.14,262.14,0,0,0-36.567-3.042c-17.923,0-76.286,2.253-127.984,30.419s-95.438,69.488-124.937,83.651c-27.4,13.157-42.809,15.889-41.137-7.6,2.412-33.9,2.414-81.587-6.211-104.641C133.384,0.242,88.184,1,70.866,1S19.252,2.649,9.529,14.735ZM73.406,7.75c23.766,0,43.032,2.008,43.032,4.484s-19.266,4.484-43.032,4.484-43.031-2.008-43.031-4.484S49.641,7.75,73.406,7.75Z"/>
</svg>
